<svg width="150" height="54" viewBox="0 0 150 54" fill="none" xmlns="http://www.w3.org/2000/svg">
<g id="logo">
<g id="worm">
<path id="Vector" d="M101.86 9C104.208 9.00265 106.459 9.93728 108.119 11.5986C109.778 13.2599 110.71 15.5119 110.71 17.86C110.714 19.5641 110.22 21.2322 109.29 22.66V28.59C109.289 29.2286 109.413 29.8612 109.657 30.4514C109.901 31.0416 110.259 31.5779 110.711 32.0295C111.162 32.481 111.698 32.839 112.289 33.0827C112.879 33.3265 113.511 33.4513 114.15 33.45H141.21C143.276 33.45 145.257 34.2707 146.718 35.7316C148.179 37.1925 149 39.174 149 41.24C148.904 43.2113 148.03 45.064 146.569 46.3914C145.109 47.7188 143.181 48.4124 141.21 48.32H108.55C106.694 48.32 104.857 47.9545 103.143 47.2444C101.428 46.5343 99.8707 45.4935 98.5586 44.1814C97.2465 42.8693 96.2057 41.3116 95.4956 39.5973C94.7855 37.883 94.42 36.0456 94.42 34.19V22.66C93.5578 21.3224 93.0719 19.7772 93.0131 18.1869C92.9544 16.5965 93.3252 15.0197 94.0864 13.6222C94.8475 12.2246 95.9711 11.0578 97.339 10.2445C98.7069 9.43117 100.269 9.00128 101.86 9V9Z" fill="#52FFAA"/>
<path id="Vector_2" d="M101.861 9C102.534 9.00508 103.204 9.08219 103.861 9.23C102.476 9.5512 101.188 10.2011 100.107 11.1247C99.0258 12.0484 98.1829 13.2187 97.6493 14.5368C97.1158 15.8549 96.9074 17.282 97.0417 18.6976C97.176 20.1132 97.649 21.4757 98.4208 22.67V34.19C98.4208 37.9375 99.9095 41.5315 102.559 44.1814C105.209 46.8313 108.803 48.32 112.551 48.32H108.551C106.695 48.32 104.858 47.9545 103.143 47.2444C101.429 46.5343 99.8715 45.4935 98.5594 44.1814C97.2473 42.8693 96.2065 41.3116 95.4964 39.5973C94.7863 37.883 94.4208 36.0456 94.4208 34.19V22.66C93.5586 21.3224 93.0726 19.7772 93.0139 18.1869C92.9552 16.5965 93.3259 15.0197 94.0871 13.6222C94.8483 12.2246 95.9719 11.0578 97.3398 10.2445C98.7077 9.43117 100.269 9.00128 101.861 9V9Z" fill="#17E198"/>
<path id="Vector_3" d="M97.58 9.00016V6.13016C97.58 5.74029 97.4251 5.36639 97.1494 5.09071C96.8738 4.81503 96.4999 4.66016 96.11 4.66016C95.7201 4.66016 95.3462 4.81503 95.0706 5.09071C94.7949 5.36639 94.64 5.74029 94.64 6.13016C94.64 6.39537 94.5346 6.64973 94.3471 6.83726C94.1596 7.0248 93.9052 7.13016 93.64 7.13016C93.3748 7.13016 93.1204 7.0248 92.9329 6.83726C92.7454 6.64973 92.64 6.39537 92.64 6.13016C92.64 5.20986 93.0056 4.32725 93.6563 3.6765C94.3071 3.02574 95.1897 2.66016 96.11 2.66016C97.0303 2.66016 97.9129 3.02574 98.5637 3.6765C99.2144 4.32725 99.58 5.20986 99.58 6.13016V8.27016C101.074 7.89673 102.636 7.89673 104.13 8.27016V6.13016C104.13 5.20986 104.496 4.32725 105.146 3.6765C105.797 3.02574 106.68 2.66016 107.6 2.66016C108.52 2.66016 109.403 3.02574 110.054 3.6765C110.704 4.32725 111.07 5.20986 111.07 6.13016C111.07 6.39537 110.965 6.64973 110.777 6.83726C110.59 7.0248 110.335 7.13016 110.07 7.13016C109.805 7.13016 109.55 7.0248 109.363 6.83726C109.175 6.64973 109.07 6.39537 109.07 6.13016C109.07 5.74029 108.915 5.36639 108.639 5.09071C108.364 4.81503 107.99 4.66016 107.6 4.66016C107.21 4.66016 106.836 4.81503 106.561 5.09071C106.285 5.36639 106.13 5.74029 106.13 6.13016V9.00016C107.372 9.59356 108.476 10.4409 109.37 11.4875C110.264 12.5341 110.928 13.7566 111.32 15.076C111.712 16.3954 111.823 17.7824 111.646 19.1474C111.468 20.5123 111.006 21.8248 110.29 23.0002V28.6502C110.29 29.6722 110.695 30.6525 111.417 31.3761C112.139 32.0997 113.118 32.5075 114.14 32.5102H141.21C143.538 32.5154 145.769 33.4418 147.416 35.087C149.063 36.7321 149.992 38.9623 150 41.2902C149.883 43.5124 148.895 45.5989 147.249 47.0968C145.603 48.5946 143.433 49.3828 141.21 49.2902H108.55C104.547 49.277 100.71 47.6829 97.8766 44.8548C95.0428 42.0267 93.4411 38.1936 93.42 34.1902V22.9402C92.7036 21.7648 92.2418 20.4523 92.0643 19.0874C91.8869 17.7224 91.9977 16.3354 92.3898 15.016C92.7819 13.6966 93.4464 12.4741 94.3404 11.4275C95.2344 10.3809 96.338 9.53356 97.58 8.94016V9.00016ZM141.26 47.3202C142.958 47.3993 144.618 46.805 145.881 45.6664C147.143 44.5279 147.904 42.9372 148 41.2402C147.997 39.4402 147.281 37.7146 146.008 36.4418C144.736 35.169 143.01 34.4528 141.21 34.4502H139.52C140.85 36.6802 142.25 41.0102 139.15 47.3202H141.26ZM136.9 47.3202C141 39.8102 138 35.5202 137.07 34.4502H125.92C127.25 36.6802 128.65 41.0102 125.55 47.3202H136.9ZM108.55 47.3202H123.3C127.4 39.8102 124.4 35.5202 123.46 34.4502H113.91C114.09 36.6602 114.05 41.0602 111.4 44.2602C110.238 45.6696 108.692 46.7117 106.95 47.2602C107.482 47.3103 108.016 47.3303 108.55 47.3202V47.3202ZM95.42 34.1902C95.4225 36.6125 96.0955 38.9869 97.3646 41.0502C98.6337 43.1136 100.449 44.7853 102.61 45.8802C105.86 45.8302 108.3 44.8802 109.85 42.9902C112.31 39.9902 112.03 35.5202 111.85 33.9902C111.161 33.6929 110.533 33.2689 110 32.7402C109.822 32.5531 109.655 32.3562 109.5 32.1502C107.466 33.475 105.087 34.1707 102.66 34.1502C100.14 34.1049 97.6644 33.4858 95.42 32.3402V34.1902ZM95.25 22.0902C96.0761 23.08 97.1078 23.8781 98.2735 24.429C99.4391 24.9799 100.711 25.2703 102 25.2802C102.265 25.2802 102.52 25.3855 102.707 25.573C102.895 25.7606 103 26.0149 103 26.2802C103 26.5454 102.895 26.7997 102.707 26.9873C102.52 27.1748 102.265 27.2802 102 27.2802C99.6144 27.2713 97.2996 26.4692 95.42 25.0002V30.1002C102.42 33.9002 107.07 31.4302 108.56 30.3702C108.384 29.793 108.293 29.1934 108.29 28.5902V22.6602C108.289 22.4651 108.344 22.274 108.45 22.1102C109.275 20.8428 109.713 19.3624 109.71 17.8502C109.714 16.6266 109.433 15.4189 108.888 14.3232C108.344 13.2275 107.551 12.2741 106.573 11.5389C105.595 10.8037 104.459 10.307 103.255 10.0883C102.051 9.86966 100.813 9.93507 99.6384 10.2794C98.4643 10.6236 97.3868 11.2373 96.4916 12.0714C95.5964 12.9056 94.9084 13.9372 94.4822 15.0842C94.056 16.2311 93.9035 17.4618 94.0368 18.6781C94.1701 19.8943 94.5855 21.0627 95.25 22.0902V22.0902Z" fill="#1B212D"/>
<path id="Vector_4" d="M104.75 14.4404C105.015 14.4404 105.27 14.5458 105.457 14.7333C105.645 14.9209 105.75 15.1752 105.75 15.4404V17.1704C105.75 17.4356 105.645 17.69 105.457 17.8775C105.27 18.0651 105.015 18.1704 104.75 18.1704C104.485 18.1704 104.23 18.0651 104.043 17.8775C103.855 17.69 103.75 17.4356 103.75 17.1704V15.4404C103.75 15.1752 103.855 14.9209 104.043 14.7333C104.23 14.5458 104.485 14.4404 104.75 14.4404ZM99.25 14.4404C99.5152 14.4404 99.7696 14.5458 99.9571 14.7333C100.145 14.9209 100.25 15.1752 100.25 15.4404V17.1704C100.25 17.4356 100.145 17.69 99.9571 17.8775C99.7696 18.0651 99.5152 18.1704 99.25 18.1704C98.9848 18.1704 98.7304 18.0651 98.5429 17.8775C98.3554 17.69 98.25 17.4356 98.25 17.1704V15.4404C98.25 15.1752 98.3554 14.9209 98.5429 14.7333C98.7304 14.5458 98.9848 14.4404 99.25 14.4404Z" fill="#1B212D"/>
</g>
<g id="Code">
<path d="M23.9478 32.0788H18.3484C18.2461 31.3544 18.0373 30.7109 17.7219 30.1484C17.4066 29.5774 17.0018 29.0916 16.5075 28.6911C16.0131 28.2905 15.4421 27.9837 14.7944 27.7706C14.1552 27.5575 13.4606 27.451 12.7106 27.451C11.3555 27.451 10.1751 27.7876 9.16939 28.4609C8.16371 29.1257 7.38388 30.0973 6.8299 31.3757C6.27592 32.6456 5.99893 34.1882 5.99893 36.0036C5.99893 37.87 6.27592 39.4382 6.8299 40.7081C7.3924 41.978 8.17649 42.9368 9.18217 43.5845C10.1879 44.2322 11.3512 44.5561 12.6722 44.5561C13.4137 44.5561 14.0998 44.4581 14.7305 44.2621C15.3697 44.0661 15.9364 43.7805 16.4308 43.4055C16.9251 43.022 17.3342 42.5575 17.658 42.0121C17.9904 41.4666 18.2205 40.8445 18.3484 40.1456L23.9478 40.1712C23.8029 41.3729 23.4407 42.532 22.8612 43.6484C22.2901 44.7564 21.5188 45.7493 20.5472 46.6271C19.5842 47.4965 18.4336 48.1868 17.0955 48.6982C15.766 49.201 14.2617 49.4524 12.5827 49.4524C10.2475 49.4524 8.15945 48.924 6.31854 47.8672C4.48615 46.8104 3.03729 45.2805 1.97195 43.2777C0.915128 41.2749 0.386719 38.8501 0.386719 36.0036C0.386719 33.1484 0.923651 30.7195 1.99751 28.7166C3.07138 26.7138 4.52876 25.1882 6.36967 24.1399C8.21058 23.0831 10.2816 22.5547 12.5827 22.5547C14.0998 22.5547 15.506 22.7678 16.8015 23.1939C18.1055 23.62 19.2603 24.2422 20.266 25.0604C21.2717 25.87 22.0898 26.8629 22.7205 28.0391C23.3597 29.2152 23.7688 30.5618 23.9478 32.0788Z" fill="black"/>
<path d="M36.6871 49.478C34.7013 49.478 32.984 49.0561 31.5352 48.2124C30.0948 47.3601 28.9826 46.1754 28.1985 44.6584C27.4144 43.1328 27.0224 41.3643 27.0224 39.353C27.0224 37.3246 27.4144 35.5518 28.1985 34.0348C28.9826 32.5092 30.0948 31.3246 31.5352 30.4808C32.984 29.6286 34.7013 29.2024 36.6871 29.2024C38.6729 29.2024 40.386 29.6286 41.8264 30.4808C43.2752 31.3246 44.3917 32.5092 45.1758 34.0348C45.9599 35.5518 46.3519 37.3246 46.3519 39.353C46.3519 41.3643 45.9599 43.1328 45.1758 44.6584C44.3917 46.1754 43.2752 47.3601 41.8264 48.2124C40.386 49.0561 38.6729 49.478 36.6871 49.478ZM36.7127 45.2592C37.6161 45.2592 38.3704 45.0036 38.9755 44.4922C39.5806 43.9723 40.0366 43.2649 40.3434 42.37C40.6587 41.4751 40.8164 40.4567 40.8164 39.3146C40.8164 38.1726 40.6587 37.1541 40.3434 36.2592C40.0366 35.3643 39.5806 34.657 38.9755 34.1371C38.3704 33.6172 37.6161 33.3572 36.7127 33.3572C35.8008 33.3572 35.0337 33.6172 34.4116 34.1371C33.7979 34.657 33.3335 35.3643 33.0181 36.2592C32.7113 37.1541 32.5579 38.1726 32.5579 39.3146C32.5579 40.4567 32.7113 41.4751 33.0181 42.37C33.3335 43.2649 33.7979 43.9723 34.4116 44.4922C35.0337 45.0036 35.8008 45.2592 36.7127 45.2592Z" fill="black"/>
<path d="M57.1289 49.4141C55.6374 49.4141 54.2866 49.0305 53.0764 48.2635C51.8746 47.4879 50.9201 46.3501 50.2127 44.8501C49.5138 43.3416 49.1644 41.4922 49.1644 39.3018C49.1644 37.0518 49.5266 35.1811 50.2511 33.6896C50.9755 32.1896 51.9386 31.0689 53.1403 30.3274C54.3505 29.5774 55.6758 29.2024 57.1161 29.2024C58.2156 29.2024 59.1317 29.3899 59.8647 29.7649C60.6062 30.1314 61.2028 30.5916 61.6545 31.1456C62.1147 31.6911 62.4641 32.228 62.7028 32.7564H62.869V22.9126H68.3022L64.7328 37.4737L62.7028 45.9496C62.4471 46.495 62.0849 47.0362 61.6161 47.5732C61.1559 48.1016 60.555 48.5405 59.8136 48.8899C59.0806 49.2393 58.1857 49.4141 57.1289 49.4141ZM58.8548 45.0803C59.7326 45.0803 60.4741 44.8416 61.0792 44.3643C61.6928 43.8786 62.1616 43.201 62.4854 42.3317C62.8178 41.4624 62.984 40.4439 62.984 39.2763C62.984 38.1087 62.8221 37.0945 62.4982 36.2337C62.1744 35.3729 61.7056 34.7081 61.092 34.2393C60.4783 33.7706 59.7326 33.5362 58.8548 33.5362C57.9599 33.5362 57.2056 33.7791 56.592 34.2649C55.9783 34.7507 55.5139 35.424 55.1985 36.2848C54.8832 37.1456 54.7255 38.1428 54.7255 39.2763C54.7255 40.4183 54.8832 41.4283 55.1985 42.3061C55.5224 43.1754 55.9869 43.8572 56.592 44.3516C57.2056 44.8374 57.9599 45.0803 58.8548 45.0803Z" fill="black"/>
<path d="M81.7287 49.478C79.7088 49.478 77.9702 49.0689 76.5128 48.2507C75.0639 47.424 73.9474 46.2564 73.1634 44.7479C72.3793 43.2308 71.9872 41.4368 71.9872 39.3658C71.9872 37.3459 72.3793 35.5732 73.1634 34.0476C73.9474 32.522 75.0511 31.3331 76.4744 30.4808C77.9063 29.6286 79.5852 29.2024 81.5114 29.2024C82.8068 29.2024 84.0128 29.4112 85.1293 29.8288C86.2543 30.2379 87.2344 30.8558 88.0696 31.6825C88.9134 32.5092 89.5696 33.549 90.0384 34.8018C90.5071 36.0462 90.7415 37.5036 90.7415 39.174V40.6697H74.1605V37.2947H85.6151C85.6151 36.5107 85.4446 35.8161 85.1037 35.2109C84.7628 34.6058 84.2898 34.1328 83.6847 33.7919C83.0881 33.4425 82.3935 33.2678 81.6009 33.2678C80.7741 33.2678 80.0412 33.4595 79.402 33.843C78.7713 34.218 78.277 34.7251 77.919 35.3643C77.5611 35.995 77.3778 36.6982 77.3693 37.4737V40.6825C77.3693 41.6541 77.5483 42.4936 77.9062 43.201C78.2727 43.9084 78.7884 44.4538 79.4531 44.8374C80.1179 45.2209 80.9063 45.4126 81.8182 45.4126C82.4233 45.4126 82.9773 45.3274 83.4801 45.157C83.983 44.9865 84.4134 44.7308 84.7713 44.3899C85.1293 44.049 85.402 43.6314 85.5895 43.1371L90.6264 43.4695C90.3707 44.6797 89.8466 45.7365 89.054 46.6399C88.2699 47.5348 87.2557 48.2337 86.0114 48.7365C84.7756 49.2308 83.348 49.478 81.7287 49.478Z" fill="black"/>
</g>
</g>
</svg>
